<mxfile host="app.diagrams.net" modified="2020-09-07T02:50:27.109Z" agent="5.0 (Windows)" etag="v1ci-GH9SM-32lTcfyjX" version="13.6.6" type="github">
  <diagram id="n2Vf3eqKdyxLM4GQyHRS" name="Page-1">
    <mxGraphModel dx="1422" dy="741" grid="1" gridSize="10" guides="1" tooltips="1" connect="1" arrows="1" fold="1" page="1" pageScale="1" pageWidth="4681" pageHeight="3300" math="0" shadow="0">
      <root>
        <mxCell id="0" />
        <mxCell id="1" parent="0" />
        <mxCell id="k5MXxjJfHEkBRCnErAjd-1" value="Project Pool" style="rounded=1;whiteSpace=wrap;html=1;fillColor=#ffe6cc;strokeColor=#d79b00;fontStyle=1" vertex="1" parent="1">
          <mxGeometry x="40" y="820" width="90" height="30" as="geometry" />
        </mxCell>
        <mxCell id="k5MXxjJfHEkBRCnErAjd-2" value="Vehicle Projects" style="rounded=1;whiteSpace=wrap;html=1;fillColor=#ffe6cc;strokeColor=#d79b00;fontStyle=1" vertex="1" parent="1">
          <mxGeometry x="230" y="790" width="110" height="30" as="geometry" />
        </mxCell>
        <mxCell id="k5MXxjJfHEkBRCnErAjd-3" value="Vehicles in Market" style="rounded=1;whiteSpace=wrap;html=1;fillColor=#ffe6cc;strokeColor=#d79b00;fontStyle=1" vertex="1" parent="1">
          <mxGeometry x="230" y="850" width="110" height="30" as="geometry" />
        </mxCell>
        <mxCell id="k5MXxjJfHEkBRCnErAjd-5" value="Overall" style="rounded=1;whiteSpace=wrap;html=1;fillColor=#ffe6cc;strokeColor=#d79b00;fontStyle=1" vertex="1" parent="1">
          <mxGeometry x="440" y="660" width="90" height="30" as="geometry" />
        </mxCell>
        <mxCell id="k5MXxjJfHEkBRCnErAjd-6" value="CO2" style="rounded=1;whiteSpace=wrap;html=1;fillColor=#ffe6cc;strokeColor=#d79b00;fontStyle=1" vertex="1" parent="1">
          <mxGeometry x="440" y="850" width="90" height="30" as="geometry" />
        </mxCell>
        <mxCell id="k5MXxjJfHEkBRCnErAjd-7" value="Market" style="rounded=1;whiteSpace=wrap;html=1;fillColor=#ffe6cc;strokeColor=#d79b00;fontStyle=1" vertex="1" parent="1">
          <mxGeometry x="440" y="790" width="90" height="30" as="geometry" />
        </mxCell>
        <mxCell id="k5MXxjJfHEkBRCnErAjd-8" value="Finance" style="rounded=1;whiteSpace=wrap;html=1;fillColor=#ffe6cc;strokeColor=#d79b00;fontStyle=1" vertex="1" parent="1">
          <mxGeometry x="440" y="724" width="90" height="30" as="geometry" />
        </mxCell>
        <mxCell id="k5MXxjJfHEkBRCnErAjd-9" value="Quality" style="rounded=1;whiteSpace=wrap;html=1;fillColor=#ffe6cc;strokeColor=#d79b00;fontStyle=1" vertex="1" parent="1">
          <mxGeometry x="440" y="910" width="90" height="30" as="geometry" />
        </mxCell>
        <mxCell id="k5MXxjJfHEkBRCnErAjd-10" value="Technical" style="rounded=1;whiteSpace=wrap;html=1;fillColor=#ffe6cc;strokeColor=#d79b00;fontStyle=1" vertex="1" parent="1">
          <mxGeometry x="440" y="970" width="90" height="30" as="geometry" />
        </mxCell>
        <mxCell id="k5MXxjJfHEkBRCnErAjd-12" value="" style="endArrow=classic;html=1;exitX=1;exitY=0.5;exitDx=0;exitDy=0;entryX=0;entryY=0.5;entryDx=0;entryDy=0;fontStyle=1" edge="1" parent="1" source="k5MXxjJfHEkBRCnErAjd-1" target="k5MXxjJfHEkBRCnErAjd-3">
          <mxGeometry width="50" height="50" relative="1" as="geometry">
            <mxPoint x="130" y="870" as="sourcePoint" />
            <mxPoint x="180" y="820" as="targetPoint" />
            <Array as="points">
              <mxPoint x="150" y="835" />
              <mxPoint x="160" y="835" />
              <mxPoint x="160" y="865" />
            </Array>
          </mxGeometry>
        </mxCell>
        <mxCell id="k5MXxjJfHEkBRCnErAjd-13" value="" style="endArrow=classic;html=1;exitX=1;exitY=0.5;exitDx=0;exitDy=0;entryX=0;entryY=0.5;entryDx=0;entryDy=0;fontStyle=1" edge="1" parent="1" source="k5MXxjJfHEkBRCnErAjd-1" target="k5MXxjJfHEkBRCnErAjd-2">
          <mxGeometry width="50" height="50" relative="1" as="geometry">
            <mxPoint x="560" y="770" as="sourcePoint" />
            <mxPoint x="610" y="720" as="targetPoint" />
            <Array as="points">
              <mxPoint x="160" y="835" />
              <mxPoint x="160" y="805" />
            </Array>
          </mxGeometry>
        </mxCell>
        <mxCell id="k5MXxjJfHEkBRCnErAjd-14" value="" style="shape=curlyBracket;whiteSpace=wrap;html=1;rounded=1;direction=west;size=0.5;fontStyle=1" vertex="1" parent="1">
          <mxGeometry x="340" y="800" width="20" height="70" as="geometry" />
        </mxCell>
        <mxCell id="k5MXxjJfHEkBRCnErAjd-15" value="" style="endArrow=classic;html=1;exitX=0.1;exitY=0.5;exitDx=0;exitDy=0;exitPerimeter=0;entryX=0;entryY=0.5;entryDx=0;entryDy=0;fontStyle=1" edge="1" parent="1" source="k5MXxjJfHEkBRCnErAjd-14" target="k5MXxjJfHEkBRCnErAjd-5">
          <mxGeometry width="50" height="50" relative="1" as="geometry">
            <mxPoint x="560" y="770" as="sourcePoint" />
            <mxPoint x="610" y="720" as="targetPoint" />
            <Array as="points">
              <mxPoint x="380" y="835" />
              <mxPoint x="380" y="675" />
            </Array>
          </mxGeometry>
        </mxCell>
        <mxCell id="k5MXxjJfHEkBRCnErAjd-16" value="" style="endArrow=classic;html=1;exitX=0.1;exitY=0.5;exitDx=0;exitDy=0;exitPerimeter=0;entryX=0;entryY=0.5;entryDx=0;entryDy=0;fontStyle=1" edge="1" parent="1" source="k5MXxjJfHEkBRCnErAjd-14" target="k5MXxjJfHEkBRCnErAjd-10">
          <mxGeometry width="50" height="50" relative="1" as="geometry">
            <mxPoint x="560" y="770" as="sourcePoint" />
            <mxPoint x="610" y="720" as="targetPoint" />
            <Array as="points">
              <mxPoint x="380" y="835" />
              <mxPoint x="380" y="985" />
            </Array>
          </mxGeometry>
        </mxCell>
        <mxCell id="k5MXxjJfHEkBRCnErAjd-17" value="" style="endArrow=classic;html=1;entryX=0;entryY=0.5;entryDx=0;entryDy=0;fontStyle=1" edge="1" parent="1" target="k5MXxjJfHEkBRCnErAjd-8">
          <mxGeometry width="50" height="50" relative="1" as="geometry">
            <mxPoint x="380" y="740" as="sourcePoint" />
            <mxPoint x="610" y="720" as="targetPoint" />
          </mxGeometry>
        </mxCell>
        <mxCell id="k5MXxjJfHEkBRCnErAjd-18" value="" style="endArrow=classic;html=1;entryX=0;entryY=0.5;entryDx=0;entryDy=0;fontStyle=1" edge="1" parent="1" target="k5MXxjJfHEkBRCnErAjd-7">
          <mxGeometry width="50" height="50" relative="1" as="geometry">
            <mxPoint x="380" y="805" as="sourcePoint" />
            <mxPoint x="610" y="720" as="targetPoint" />
          </mxGeometry>
        </mxCell>
        <mxCell id="k5MXxjJfHEkBRCnErAjd-19" value="" style="endArrow=classic;html=1;entryX=0;entryY=0.5;entryDx=0;entryDy=0;fontStyle=1" edge="1" parent="1" target="k5MXxjJfHEkBRCnErAjd-6">
          <mxGeometry width="50" height="50" relative="1" as="geometry">
            <mxPoint x="380" y="865" as="sourcePoint" />
            <mxPoint x="610" y="720" as="targetPoint" />
          </mxGeometry>
        </mxCell>
        <mxCell id="k5MXxjJfHEkBRCnErAjd-20" value="" style="endArrow=classic;html=1;entryX=0;entryY=0.5;entryDx=0;entryDy=0;fontStyle=1" edge="1" parent="1" target="k5MXxjJfHEkBRCnErAjd-9">
          <mxGeometry width="50" height="50" relative="1" as="geometry">
            <mxPoint x="380" y="925" as="sourcePoint" />
            <mxPoint x="610" y="720" as="targetPoint" />
          </mxGeometry>
        </mxCell>
        <mxCell id="k5MXxjJfHEkBRCnErAjd-21" value="" style="shape=curlyBracket;whiteSpace=wrap;html=1;rounded=1;direction=west;size=0.5;fontStyle=1" vertex="1" parent="1">
          <mxGeometry x="550" y="670" width="20" height="320" as="geometry" />
        </mxCell>
        <mxCell id="k5MXxjJfHEkBRCnErAjd-25" value="User Groups" style="rounded=1;whiteSpace=wrap;html=1;fillColor=#fad7ac;strokeColor=#b46504;fontStyle=1" vertex="1" parent="1">
          <mxGeometry x="440" y="1690" width="90" height="30" as="geometry" />
        </mxCell>
        <mxCell id="k5MXxjJfHEkBRCnErAjd-26" value="Roles/Users" style="rounded=1;whiteSpace=wrap;html=1;fillColor=#fad7ac;strokeColor=#b46504;fontStyle=1" vertex="1" parent="1">
          <mxGeometry x="440" y="1740" width="90" height="30" as="geometry" />
        </mxCell>
        <mxCell id="k5MXxjJfHEkBRCnErAjd-27" value="Master Data " style="rounded=1;whiteSpace=wrap;html=1;fillColor=#fad7ac;strokeColor=#b46504;fontStyle=1" vertex="1" parent="1">
          <mxGeometry x="440" y="1840" width="90" height="30" as="geometry" />
        </mxCell>
        <mxCell id="k5MXxjJfHEkBRCnErAjd-28" value="PEP Settings" style="rounded=1;whiteSpace=wrap;html=1;fillColor=#fad7ac;strokeColor=#b46504;fontStyle=1" vertex="1" parent="1">
          <mxGeometry x="440" y="1960" width="90" height="30" as="geometry" />
        </mxCell>
        <mxCell id="k5MXxjJfHEkBRCnErAjd-29" value="My Approval" style="rounded=1;whiteSpace=wrap;html=1;fillColor=#fad7ac;strokeColor=#b46504;fontStyle=1" vertex="1" parent="1">
          <mxGeometry x="440" y="2580" width="90" height="30" as="geometry" />
        </mxCell>
        <mxCell id="k5MXxjJfHEkBRCnErAjd-31" value="Audit Logs" style="rounded=1;whiteSpace=wrap;html=1;fillColor=#fad7ac;strokeColor=#b46504;fontStyle=1" vertex="1" parent="1">
          <mxGeometry x="440" y="2520" width="90" height="30" as="geometry" />
        </mxCell>
        <mxCell id="k5MXxjJfHEkBRCnErAjd-32" value="Sync User" style="rounded=1;whiteSpace=wrap;html=1;fillColor=#fad7ac;strokeColor=#b46504;fontStyle=1" vertex="1" parent="1">
          <mxGeometry x="440" y="2630" width="90" height="30" as="geometry" />
        </mxCell>
        <mxCell id="k5MXxjJfHEkBRCnErAjd-33" value="Landing Page" style="rounded=1;whiteSpace=wrap;html=1;fillColor=#fad7ac;strokeColor=#b46504;fontStyle=1" vertex="1" parent="1">
          <mxGeometry x="440" y="2680" width="90" height="30" as="geometry" />
        </mxCell>
        <mxCell id="k5MXxjJfHEkBRCnErAjd-43" value="Administration" style="rounded=1;whiteSpace=wrap;html=1;fillColor=#ffe6cc;strokeColor=#d79b00;fontStyle=1" vertex="1" parent="1">
          <mxGeometry x="40" y="2070" width="90" height="30" as="geometry" />
        </mxCell>
        <mxCell id="k5MXxjJfHEkBRCnErAjd-44" value="Cycle Plan" style="rounded=1;whiteSpace=wrap;html=1;fillColor=#ffe6cc;strokeColor=#d79b00;fontStyle=1" vertex="1" parent="1">
          <mxGeometry x="40" y="1290" width="90" height="30" as="geometry" />
        </mxCell>
        <mxCell id="k5MXxjJfHEkBRCnErAjd-45" value="Group" style="rounded=1;whiteSpace=wrap;html=1;fillColor=#ffe6cc;strokeColor=#d79b00;fontStyle=1" vertex="1" parent="1">
          <mxGeometry x="230" y="1250" width="110" height="30" as="geometry" />
        </mxCell>
        <mxCell id="k5MXxjJfHEkBRCnErAjd-46" value="Brand" style="rounded=1;whiteSpace=wrap;html=1;fillColor=#ffe6cc;strokeColor=#d79b00;fontStyle=1" vertex="1" parent="1">
          <mxGeometry x="230" y="1330" width="110" height="30" as="geometry" />
        </mxCell>
        <mxCell id="k5MXxjJfHEkBRCnErAjd-48" value="" style="endArrow=classic;html=1;exitX=1;exitY=0.5;exitDx=0;exitDy=0;entryX=0;entryY=0.5;entryDx=0;entryDy=0;" edge="1" parent="1" source="k5MXxjJfHEkBRCnErAjd-44" target="k5MXxjJfHEkBRCnErAjd-45">
          <mxGeometry width="50" height="50" relative="1" as="geometry">
            <mxPoint x="560" y="1310" as="sourcePoint" />
            <mxPoint x="610" y="1260" as="targetPoint" />
            <Array as="points">
              <mxPoint x="160" y="1305" />
              <mxPoint x="160" y="1265" />
            </Array>
          </mxGeometry>
        </mxCell>
        <mxCell id="k5MXxjJfHEkBRCnErAjd-49" value="" style="endArrow=classic;html=1;exitX=1;exitY=0.5;exitDx=0;exitDy=0;entryX=0;entryY=0.5;entryDx=0;entryDy=0;" edge="1" parent="1" source="k5MXxjJfHEkBRCnErAjd-44" target="k5MXxjJfHEkBRCnErAjd-46">
          <mxGeometry width="50" height="50" relative="1" as="geometry">
            <mxPoint x="560" y="1310" as="sourcePoint" />
            <mxPoint x="610" y="1260" as="targetPoint" />
            <Array as="points">
              <mxPoint x="160" y="1305" />
              <mxPoint x="160" y="1345" />
            </Array>
          </mxGeometry>
        </mxCell>
        <mxCell id="k5MXxjJfHEkBRCnErAjd-50" value="" style="shape=curlyBracket;whiteSpace=wrap;html=1;rounded=1;direction=west;size=0.5;fontStyle=1" vertex="1" parent="1">
          <mxGeometry x="340" y="1260" width="20" height="90" as="geometry" />
        </mxCell>
        <mxCell id="k5MXxjJfHEkBRCnErAjd-53" value="Clear ALL Data" style="rounded=1;whiteSpace=wrap;html=1;fillColor=#fff2cc;strokeColor=#d6b656;fontStyle=1" vertex="1" parent="1">
          <mxGeometry x="1090" y="645" width="210" height="30" as="geometry" />
        </mxCell>
        <mxCell id="k5MXxjJfHEkBRCnErAjd-54" value="Download Excel Template" style="rounded=1;whiteSpace=wrap;html=1;fillColor=#fff2cc;strokeColor=#d6b656;fontStyle=1" vertex="1" parent="1">
          <mxGeometry x="1090" y="695" width="210" height="30" as="geometry" />
        </mxCell>
        <mxCell id="k5MXxjJfHEkBRCnErAjd-55" value="Import from Excel Template" style="rounded=1;whiteSpace=wrap;html=1;fillColor=#fff2cc;strokeColor=#d6b656;fontStyle=1" vertex="1" parent="1">
          <mxGeometry x="1090" y="749" width="210" height="30" as="geometry" />
        </mxCell>
        <mxCell id="k5MXxjJfHEkBRCnErAjd-56" value="Save" style="rounded=1;whiteSpace=wrap;html=1;fillColor=#fff2cc;strokeColor=#d6b656;fontStyle=1" vertex="1" parent="1">
          <mxGeometry x="1090" y="795" width="210" height="30" as="geometry" />
        </mxCell>
        <mxCell id="k5MXxjJfHEkBRCnErAjd-57" value="Submit" style="rounded=1;whiteSpace=wrap;html=1;fillColor=#fff2cc;strokeColor=#d6b656;fontStyle=1" vertex="1" parent="1">
          <mxGeometry x="1090" y="845" width="210" height="30" as="geometry" />
        </mxCell>
        <mxCell id="k5MXxjJfHEkBRCnErAjd-58" value="Modify Version Data" style="rounded=1;whiteSpace=wrap;html=1;fillColor=#fff2cc;strokeColor=#d6b656;fontStyle=1" vertex="1" parent="1">
          <mxGeometry x="1090" y="895" width="210" height="30" as="geometry" />
        </mxCell>
        <mxCell id="k5MXxjJfHEkBRCnErAjd-59" value="Delete Version Data" style="rounded=1;whiteSpace=wrap;html=1;fillColor=#fff2cc;strokeColor=#d6b656;fontStyle=1" vertex="1" parent="1">
          <mxGeometry x="1090" y="945" width="210" height="30" as="geometry" />
        </mxCell>
        <mxCell id="k5MXxjJfHEkBRCnErAjd-61" value="Return Current Data" style="rounded=1;whiteSpace=wrap;html=1;fillColor=#fff2cc;strokeColor=#d6b656;fontStyle=1" vertex="1" parent="1">
          <mxGeometry x="1090" y="995" width="210" height="30" as="geometry" />
        </mxCell>
        <mxCell id="k5MXxjJfHEkBRCnErAjd-62" value="Search" style="rounded=1;whiteSpace=wrap;html=1;fillColor=#fff2cc;strokeColor=#d6b656;fontStyle=1" vertex="1" parent="1">
          <mxGeometry x="1090" y="1090" width="210" height="30" as="geometry" />
        </mxCell>
        <mxCell id="k5MXxjJfHEkBRCnErAjd-63" value="Create Project" style="rounded=1;whiteSpace=wrap;html=1;fillColor=#fff2cc;strokeColor=#d6b656;fontStyle=1" vertex="1" parent="1">
          <mxGeometry x="1090" y="1140" width="210" height="30" as="geometry" />
        </mxCell>
        <mxCell id="k5MXxjJfHEkBRCnErAjd-64" value="Start The Project" style="rounded=1;whiteSpace=wrap;html=1;fillColor=#fff2cc;strokeColor=#d6b656;fontStyle=1" vertex="1" parent="1">
          <mxGeometry x="1090" y="1190" width="210" height="30" as="geometry" />
        </mxCell>
        <mxCell id="k5MXxjJfHEkBRCnErAjd-65" value="Delete The Project" style="rounded=1;whiteSpace=wrap;html=1;fillColor=#fff2cc;strokeColor=#d6b656;fontStyle=1" vertex="1" parent="1">
          <mxGeometry x="1090" y="1240" width="210" height="30" as="geometry" />
        </mxCell>
        <mxCell id="k5MXxjJfHEkBRCnErAjd-66" value="Import KPB" style="rounded=1;whiteSpace=wrap;html=1;fillColor=#fff2cc;strokeColor=#d6b656;fontStyle=1" vertex="1" parent="1">
          <mxGeometry x="1090" y="1290" width="210" height="30" as="geometry" />
        </mxCell>
        <mxCell id="k5MXxjJfHEkBRCnErAjd-67" value="Download Excel Template" style="rounded=1;whiteSpace=wrap;html=1;fillColor=#fff2cc;strokeColor=#d6b656;fontStyle=1" vertex="1" parent="1">
          <mxGeometry x="1090" y="1340" width="210" height="30" as="geometry" />
        </mxCell>
        <mxCell id="k5MXxjJfHEkBRCnErAjd-68" value="Import from Excel" style="rounded=1;whiteSpace=wrap;html=1;fillColor=#fff2cc;strokeColor=#d6b656;fontStyle=1" vertex="1" parent="1">
          <mxGeometry x="1090" y="1390" width="210" height="30" as="geometry" />
        </mxCell>
        <mxCell id="k5MXxjJfHEkBRCnErAjd-69" value="Export" style="rounded=1;whiteSpace=wrap;html=1;fillColor=#fff2cc;strokeColor=#d6b656;fontStyle=1" vertex="1" parent="1">
          <mxGeometry x="1090" y="1440" width="210" height="30" as="geometry" />
        </mxCell>
        <mxCell id="k5MXxjJfHEkBRCnErAjd-70" value="Save" style="rounded=1;whiteSpace=wrap;html=1;fillColor=#fff2cc;strokeColor=#d6b656;fontStyle=1" vertex="1" parent="1">
          <mxGeometry x="1090" y="1490" width="210" height="30" as="geometry" />
        </mxCell>
        <mxCell id="k5MXxjJfHEkBRCnErAjd-71" value="Project Committee" style="rounded=1;whiteSpace=wrap;html=1;fillColor=#ffe6cc;strokeColor=#d79b00;fontStyle=1" vertex="1" parent="1">
          <mxGeometry x="40" y="3070" width="90" height="30" as="geometry" />
        </mxCell>
        <mxCell id="k5MXxjJfHEkBRCnErAjd-72" value="Committee Statistics" style="rounded=1;whiteSpace=wrap;html=1;fillColor=#fff2cc;strokeColor=#d6b656;fontStyle=1" vertex="1" parent="1">
          <mxGeometry x="710" y="3070" width="210" height="30" as="geometry" />
        </mxCell>
        <mxCell id="k5MXxjJfHEkBRCnErAjd-74" value="Search" style="rounded=1;whiteSpace=wrap;html=1;fillColor=#fff2cc;strokeColor=#d6b656;fontStyle=1" vertex="1" parent="1">
          <mxGeometry x="1090" y="330" width="210" height="30" as="geometry" />
        </mxCell>
        <mxCell id="k5MXxjJfHEkBRCnErAjd-75" value="Sort" style="rounded=1;whiteSpace=wrap;html=1;fillColor=#fff2cc;strokeColor=#d6b656;fontStyle=1" vertex="1" parent="1">
          <mxGeometry x="1090" y="380" width="210" height="30" as="geometry" />
        </mxCell>
        <mxCell id="k5MXxjJfHEkBRCnErAjd-76" value="Export CO2" style="rounded=1;whiteSpace=wrap;html=1;fillColor=#fff2cc;strokeColor=#d6b656;fontStyle=1" vertex="1" parent="1">
          <mxGeometry x="1090" y="430" width="210" height="30" as="geometry" />
        </mxCell>
        <mxCell id="k5MXxjJfHEkBRCnErAjd-77" value="Export Quality" style="rounded=1;whiteSpace=wrap;html=1;fillColor=#fff2cc;strokeColor=#d6b656;fontStyle=1" vertex="1" parent="1">
          <mxGeometry x="1090" y="480" width="210" height="30" as="geometry" />
        </mxCell>
        <mxCell id="k5MXxjJfHEkBRCnErAjd-78" value="Export Portfolio Status Quo" style="rounded=1;whiteSpace=wrap;html=1;fillColor=#fff2cc;strokeColor=#d6b656;fontStyle=1" vertex="1" parent="1">
          <mxGeometry x="1090" y="2020" width="210" height="30" as="geometry" />
        </mxCell>
        <mxCell id="k5MXxjJfHEkBRCnErAjd-79" value="Export Project Lifecyle" style="rounded=1;whiteSpace=wrap;html=1;fillColor=#fff2cc;strokeColor=#d6b656;fontStyle=1" vertex="1" parent="1">
          <mxGeometry x="1090" y="2070" width="210" height="30" as="geometry" />
        </mxCell>
        <mxCell id="k5MXxjJfHEkBRCnErAjd-80" value="Download Excel Template" style="rounded=1;whiteSpace=wrap;html=1;fillColor=#fff2cc;strokeColor=#d6b656;fontStyle=1" vertex="1" parent="1">
          <mxGeometry x="1090" y="2120" width="210" height="30" as="geometry" />
        </mxCell>
        <mxCell id="k5MXxjJfHEkBRCnErAjd-81" value="Import from Excel Template" style="rounded=1;whiteSpace=wrap;html=1;fillColor=#fff2cc;strokeColor=#d6b656;fontStyle=1" vertex="1" parent="1">
          <mxGeometry x="1090" y="2170" width="210" height="30" as="geometry" />
        </mxCell>
        <mxCell id="k5MXxjJfHEkBRCnErAjd-82" value="Import the saved data" style="rounded=1;whiteSpace=wrap;html=1;fillColor=#fff2cc;strokeColor=#d6b656;fontStyle=1" vertex="1" parent="1">
          <mxGeometry x="1090" y="2220" width="210" height="30" as="geometry" />
        </mxCell>
        <mxCell id="k5MXxjJfHEkBRCnErAjd-83" value="Import the approved data" style="rounded=1;whiteSpace=wrap;html=1;fillColor=#fff2cc;strokeColor=#d6b656;fontStyle=1" vertex="1" parent="1">
          <mxGeometry x="1090" y="2270" width="210" height="30" as="geometry" />
        </mxCell>
        <mxCell id="k5MXxjJfHEkBRCnErAjd-84" value="Open a project" style="rounded=1;whiteSpace=wrap;html=1;fillColor=#fff2cc;strokeColor=#d6b656;fontStyle=1" vertex="1" parent="1">
          <mxGeometry x="1090" y="2320" width="210" height="30" as="geometry" />
        </mxCell>
        <mxCell id="k5MXxjJfHEkBRCnErAjd-85" value="Delete a project" style="rounded=1;whiteSpace=wrap;html=1;fillColor=#fff2cc;strokeColor=#d6b656;fontStyle=1" vertex="1" parent="1">
          <mxGeometry x="1090" y="2370" width="210" height="30" as="geometry" />
        </mxCell>
        <mxCell id="k5MXxjJfHEkBRCnErAjd-86" value="Update a project basic info" style="rounded=1;whiteSpace=wrap;html=1;fillColor=#fff2cc;strokeColor=#d6b656;fontStyle=1" vertex="1" parent="1">
          <mxGeometry x="1090" y="2420" width="210" height="30" as="geometry" />
        </mxCell>
        <mxCell id="k5MXxjJfHEkBRCnErAjd-87" value="Add/Update/Delete" style="rounded=1;whiteSpace=wrap;html=1;fillColor=#fff2cc;strokeColor=#d6b656;fontStyle=1" vertex="1" parent="1">
          <mxGeometry x="1090" y="1690" width="210" height="30" as="geometry" />
        </mxCell>
        <mxCell id="k5MXxjJfHEkBRCnErAjd-90" value="Update/Delete/Export" style="rounded=1;whiteSpace=wrap;html=1;fillColor=#fff2cc;strokeColor=#d6b656;fontStyle=1" vertex="1" parent="1">
          <mxGeometry x="1090" y="1740" width="210" height="30" as="geometry" />
        </mxCell>
        <mxCell id="k5MXxjJfHEkBRCnErAjd-92" value="Import from Excel Template" style="rounded=1;whiteSpace=wrap;html=1;fillColor=#fff2cc;strokeColor=#d6b656;fontStyle=1" vertex="1" parent="1">
          <mxGeometry x="1090" y="1790" width="210" height="30" as="geometry" />
        </mxCell>
        <mxCell id="k5MXxjJfHEkBRCnErAjd-93" value="Add/Update/Delete" style="rounded=1;whiteSpace=wrap;html=1;fillColor=#fff2cc;strokeColor=#d6b656;fontStyle=1" vertex="1" parent="1">
          <mxGeometry x="1090" y="1890" width="210" height="30" as="geometry" />
        </mxCell>
        <mxCell id="k5MXxjJfHEkBRCnErAjd-94" value="Export" style="rounded=1;whiteSpace=wrap;html=1;fillColor=#fff2cc;strokeColor=#d6b656;fontStyle=1" vertex="1" parent="1">
          <mxGeometry x="1090" y="1840" width="210" height="30" as="geometry" />
        </mxCell>
        <mxCell id="k5MXxjJfHEkBRCnErAjd-95" value="Add/Update/Delete" style="rounded=1;whiteSpace=wrap;html=1;fillColor=#fff2cc;strokeColor=#d6b656;fontStyle=1" vertex="1" parent="1">
          <mxGeometry x="1090" y="1960" width="210" height="30" as="geometry" />
        </mxCell>
        <mxCell id="k5MXxjJfHEkBRCnErAjd-97" value="Define User Role" style="rounded=1;whiteSpace=wrap;html=1;fillColor=#fff2cc;strokeColor=#d6b656;fontStyle=1" vertex="1" parent="1">
          <mxGeometry x="710" y="1690" width="210" height="30" as="geometry" />
        </mxCell>
        <mxCell id="k5MXxjJfHEkBRCnErAjd-98" value="Different User" style="rounded=1;whiteSpace=wrap;html=1;fillColor=#fff2cc;strokeColor=#d6b656;fontStyle=1" vertex="1" parent="1">
          <mxGeometry x="710" y="1740" width="210" height="30" as="geometry" />
        </mxCell>
        <mxCell id="k5MXxjJfHEkBRCnErAjd-99" value="Basic Data Maintenance" style="rounded=1;whiteSpace=wrap;html=1;fillColor=#fff2cc;strokeColor=#d6b656;fontStyle=1" vertex="1" parent="1">
          <mxGeometry x="710" y="1840" width="210" height="30" as="geometry" />
        </mxCell>
        <mxCell id="k5MXxjJfHEkBRCnErAjd-100" value="Define Project Lifecyle" style="rounded=1;whiteSpace=wrap;html=1;fillColor=#fff2cc;strokeColor=#d6b656;fontStyle=1" vertex="1" parent="1">
          <mxGeometry x="710" y="1960" width="210" height="30" as="geometry" />
        </mxCell>
        <mxCell id="k5MXxjJfHEkBRCnErAjd-101" value="Operate Project History Record" style="rounded=1;whiteSpace=wrap;html=1;fillColor=#fff2cc;strokeColor=#d6b656;fontStyle=1" vertex="1" parent="1">
          <mxGeometry x="710" y="2520" width="210" height="30" as="geometry" />
        </mxCell>
        <mxCell id="k5MXxjJfHEkBRCnErAjd-102" value="Approve a group role" style="rounded=1;whiteSpace=wrap;html=1;fillColor=#fff2cc;strokeColor=#d6b656;fontStyle=1" vertex="1" parent="1">
          <mxGeometry x="710" y="2580" width="210" height="30" as="geometry" />
        </mxCell>
        <mxCell id="k5MXxjJfHEkBRCnErAjd-103" value="Sync Users from AD" style="rounded=1;whiteSpace=wrap;html=1;fillColor=#fff2cc;strokeColor=#d6b656;fontStyle=1" vertex="1" parent="1">
          <mxGeometry x="710" y="2630" width="210" height="30" as="geometry" />
        </mxCell>
        <mxCell id="k5MXxjJfHEkBRCnErAjd-104" value="Provide Info for Home Page Display" style="rounded=1;whiteSpace=wrap;html=1;fillColor=#fff2cc;strokeColor=#d6b656;fontStyle=1" vertex="1" parent="1">
          <mxGeometry x="710" y="2680" width="210" height="30" as="geometry" />
        </mxCell>
        <mxCell id="k5MXxjJfHEkBRCnErAjd-106" value="Project" style="rounded=1;whiteSpace=wrap;html=1;fillColor=#fad7ac;strokeColor=#b46504;fontStyle=1" vertex="1" parent="1">
          <mxGeometry x="440" y="2190" width="90" height="30" as="geometry" />
        </mxCell>
        <mxCell id="k5MXxjJfHEkBRCnErAjd-107" value="Project Details" style="rounded=1;whiteSpace=wrap;html=1;fillColor=#fff2cc;strokeColor=#d6b656;fontStyle=1" vertex="1" parent="1">
          <mxGeometry x="710" y="815" width="210" height="30" as="geometry" />
        </mxCell>
        <mxCell id="k5MXxjJfHEkBRCnErAjd-108" value="Plan projects" style="rounded=1;whiteSpace=wrap;html=1;fillColor=#fff2cc;strokeColor=#d6b656;fontStyle=1" vertex="1" parent="1">
          <mxGeometry x="710" y="1290" width="210" height="30" as="geometry" />
        </mxCell>
        <mxCell id="k5MXxjJfHEkBRCnErAjd-109" value="The projects which has started" style="rounded=1;whiteSpace=wrap;html=1;fillColor=#fff2cc;strokeColor=#d6b656;fontStyle=1" vertex="1" parent="1">
          <mxGeometry x="710" y="2190" width="210" height="30" as="geometry" />
        </mxCell>
        <mxCell id="k5MXxjJfHEkBRCnErAjd-110" value="The projects in user role" style="rounded=1;whiteSpace=wrap;html=1;fillColor=#fff2cc;strokeColor=#d6b656;fontStyle=1" vertex="1" parent="1">
          <mxGeometry x="710" y="410" width="210" height="30" as="geometry" />
        </mxCell>
        <mxCell id="k5MXxjJfHEkBRCnErAjd-111" value="Book a committee" style="rounded=1;whiteSpace=wrap;html=1;fillColor=#fff2cc;strokeColor=#d6b656;fontStyle=1" vertex="1" parent="1">
          <mxGeometry x="1090" y="3012.5" width="210" height="30" as="geometry" />
        </mxCell>
        <mxCell id="k5MXxjJfHEkBRCnErAjd-112" value="Assign Projects" style="rounded=1;whiteSpace=wrap;html=1;fillColor=#fff2cc;strokeColor=#d6b656;fontStyle=1" vertex="1" parent="1">
          <mxGeometry x="1090" y="3062.5" width="210" height="30" as="geometry" />
        </mxCell>
        <mxCell id="k5MXxjJfHEkBRCnErAjd-113" value="Modify" style="rounded=1;whiteSpace=wrap;html=1;fillColor=#fff2cc;strokeColor=#d6b656;fontStyle=1" vertex="1" parent="1">
          <mxGeometry x="1090" y="3122.5" width="210" height="30" as="geometry" />
        </mxCell>
        <mxCell id="k5MXxjJfHEkBRCnErAjd-114" value="Remove" style="rounded=1;whiteSpace=wrap;html=1;fillColor=#fff2cc;strokeColor=#d6b656;fontStyle=1" vertex="1" parent="1">
          <mxGeometry x="1090" y="3182.5" width="210" height="30" as="geometry" />
        </mxCell>
        <mxCell id="k5MXxjJfHEkBRCnErAjd-115" value="Search" style="rounded=1;whiteSpace=wrap;html=1;fillColor=#fff2cc;strokeColor=#d6b656;fontStyle=1" vertex="1" parent="1">
          <mxGeometry x="1090" y="2957.5" width="210" height="30" as="geometry" />
        </mxCell>
        <mxCell id="k5MXxjJfHEkBRCnErAjd-116" value="Add/Update" style="rounded=1;whiteSpace=wrap;html=1;fillColor=#fff2cc;strokeColor=#d6b656;fontStyle=1" vertex="1" parent="1">
          <mxGeometry x="1090" y="2680" width="210" height="30" as="geometry" />
        </mxCell>
        <mxCell id="k5MXxjJfHEkBRCnErAjd-117" value="Sync" style="rounded=1;whiteSpace=wrap;html=1;fillColor=#fff2cc;strokeColor=#d6b656;fontStyle=1" vertex="1" parent="1">
          <mxGeometry x="1090" y="2630" width="210" height="30" as="geometry" />
        </mxCell>
        <mxCell id="k5MXxjJfHEkBRCnErAjd-118" value="Approve/Reject" style="rounded=1;whiteSpace=wrap;html=1;fillColor=#fff2cc;strokeColor=#d6b656;fontStyle=1" vertex="1" parent="1">
          <mxGeometry x="1090" y="2580" width="210" height="30" as="geometry" />
        </mxCell>
        <mxCell id="k5MXxjJfHEkBRCnErAjd-119" value="Search" style="rounded=1;whiteSpace=wrap;html=1;fillColor=#fff2cc;strokeColor=#d6b656;fontStyle=1" vertex="1" parent="1">
          <mxGeometry x="1090" y="2520" width="210" height="30" as="geometry" />
        </mxCell>
        <mxCell id="k5MXxjJfHEkBRCnErAjd-120" value="" style="endArrow=classic;html=1;exitX=0.1;exitY=0.5;exitDx=0;exitDy=0;exitPerimeter=0;entryX=0;entryY=0.5;entryDx=0;entryDy=0;" edge="1" parent="1" source="k5MXxjJfHEkBRCnErAjd-21" target="k5MXxjJfHEkBRCnErAjd-107">
          <mxGeometry width="50" height="50" relative="1" as="geometry">
            <mxPoint x="770" y="680" as="sourcePoint" />
            <mxPoint x="820" y="630" as="targetPoint" />
          </mxGeometry>
        </mxCell>
        <mxCell id="k5MXxjJfHEkBRCnErAjd-121" value="" style="endArrow=classic;html=1;exitX=1;exitY=0.5;exitDx=0;exitDy=0;entryX=0;entryY=0.5;entryDx=0;entryDy=0;" edge="1" parent="1" source="k5MXxjJfHEkBRCnErAjd-107" target="k5MXxjJfHEkBRCnErAjd-53">
          <mxGeometry width="50" height="50" relative="1" as="geometry">
            <mxPoint x="870" y="770" as="sourcePoint" />
            <mxPoint x="920" y="720" as="targetPoint" />
            <Array as="points">
              <mxPoint x="960" y="830" />
              <mxPoint x="960" y="660" />
            </Array>
          </mxGeometry>
        </mxCell>
        <mxCell id="k5MXxjJfHEkBRCnErAjd-122" value="" style="endArrow=classic;html=1;exitX=1;exitY=0.5;exitDx=0;exitDy=0;entryX=0;entryY=0.5;entryDx=0;entryDy=0;" edge="1" parent="1" source="k5MXxjJfHEkBRCnErAjd-107" target="k5MXxjJfHEkBRCnErAjd-61">
          <mxGeometry width="50" height="50" relative="1" as="geometry">
            <mxPoint x="770" y="920" as="sourcePoint" />
            <mxPoint x="820" y="870" as="targetPoint" />
            <Array as="points">
              <mxPoint x="960" y="830" />
              <mxPoint x="960" y="1010" />
            </Array>
          </mxGeometry>
        </mxCell>
        <mxCell id="k5MXxjJfHEkBRCnErAjd-123" value="" style="endArrow=classic;html=1;entryX=0;entryY=0.5;entryDx=0;entryDy=0;" edge="1" parent="1" target="k5MXxjJfHEkBRCnErAjd-54">
          <mxGeometry width="50" height="50" relative="1" as="geometry">
            <mxPoint x="960" y="710" as="sourcePoint" />
            <mxPoint x="970" y="650" as="targetPoint" />
          </mxGeometry>
        </mxCell>
        <mxCell id="k5MXxjJfHEkBRCnErAjd-124" value="" style="endArrow=classic;html=1;entryX=0;entryY=0.5;entryDx=0;entryDy=0;" edge="1" parent="1" target="k5MXxjJfHEkBRCnErAjd-55">
          <mxGeometry width="50" height="50" relative="1" as="geometry">
            <mxPoint x="960" y="764" as="sourcePoint" />
            <mxPoint x="850" y="690" as="targetPoint" />
          </mxGeometry>
        </mxCell>
        <mxCell id="k5MXxjJfHEkBRCnErAjd-125" value="" style="endArrow=classic;html=1;entryX=0;entryY=0.5;entryDx=0;entryDy=0;" edge="1" parent="1" target="k5MXxjJfHEkBRCnErAjd-56">
          <mxGeometry width="50" height="50" relative="1" as="geometry">
            <mxPoint x="960" y="810" as="sourcePoint" />
            <mxPoint x="1070" y="890" as="targetPoint" />
          </mxGeometry>
        </mxCell>
        <mxCell id="k5MXxjJfHEkBRCnErAjd-126" value="" style="endArrow=classic;html=1;entryX=0;entryY=0.5;entryDx=0;entryDy=0;" edge="1" parent="1" target="k5MXxjJfHEkBRCnErAjd-57">
          <mxGeometry width="50" height="50" relative="1" as="geometry">
            <mxPoint x="960" y="860" as="sourcePoint" />
            <mxPoint x="1080" y="890" as="targetPoint" />
          </mxGeometry>
        </mxCell>
        <mxCell id="k5MXxjJfHEkBRCnErAjd-127" value="" style="endArrow=classic;html=1;" edge="1" parent="1" target="k5MXxjJfHEkBRCnErAjd-58">
          <mxGeometry width="50" height="50" relative="1" as="geometry">
            <mxPoint x="960" y="910" as="sourcePoint" />
            <mxPoint x="1070" y="940" as="targetPoint" />
          </mxGeometry>
        </mxCell>
        <mxCell id="k5MXxjJfHEkBRCnErAjd-128" value="" style="endArrow=classic;html=1;entryX=0;entryY=0.5;entryDx=0;entryDy=0;" edge="1" parent="1" target="k5MXxjJfHEkBRCnErAjd-59">
          <mxGeometry width="50" height="50" relative="1" as="geometry">
            <mxPoint x="960" y="960" as="sourcePoint" />
            <mxPoint x="1060" y="960" as="targetPoint" />
          </mxGeometry>
        </mxCell>
        <mxCell id="k5MXxjJfHEkBRCnErAjd-129" value="" style="endArrow=classic;html=1;exitX=0.1;exitY=0.5;exitDx=0;exitDy=0;exitPerimeter=0;entryX=0;entryY=0.5;entryDx=0;entryDy=0;" edge="1" parent="1" source="k5MXxjJfHEkBRCnErAjd-50" target="k5MXxjJfHEkBRCnErAjd-108">
          <mxGeometry width="50" height="50" relative="1" as="geometry">
            <mxPoint x="590" y="1210" as="sourcePoint" />
            <mxPoint x="640" y="1160" as="targetPoint" />
          </mxGeometry>
        </mxCell>
        <mxCell id="k5MXxjJfHEkBRCnErAjd-130" value="" style="endArrow=classic;html=1;exitX=1;exitY=0.5;exitDx=0;exitDy=0;entryX=0;entryY=0.5;entryDx=0;entryDy=0;" edge="1" parent="1" source="k5MXxjJfHEkBRCnErAjd-108" target="k5MXxjJfHEkBRCnErAjd-62">
          <mxGeometry width="50" height="50" relative="1" as="geometry">
            <mxPoint x="960" y="1230" as="sourcePoint" />
            <mxPoint x="1010" y="1180" as="targetPoint" />
            <Array as="points">
              <mxPoint x="960" y="1305" />
              <mxPoint x="960" y="1105" />
            </Array>
          </mxGeometry>
        </mxCell>
        <mxCell id="k5MXxjJfHEkBRCnErAjd-131" value="" style="endArrow=classic;html=1;exitX=1;exitY=0.5;exitDx=0;exitDy=0;entryX=0;entryY=0.5;entryDx=0;entryDy=0;" edge="1" parent="1" source="k5MXxjJfHEkBRCnErAjd-108" target="k5MXxjJfHEkBRCnErAjd-70">
          <mxGeometry width="50" height="50" relative="1" as="geometry">
            <mxPoint x="1000" y="1510" as="sourcePoint" />
            <mxPoint x="1050" y="1460" as="targetPoint" />
            <Array as="points">
              <mxPoint x="960" y="1305" />
              <mxPoint x="960" y="1505" />
            </Array>
          </mxGeometry>
        </mxCell>
        <mxCell id="k5MXxjJfHEkBRCnErAjd-132" value="" style="endArrow=classic;html=1;entryX=0;entryY=0.5;entryDx=0;entryDy=0;" edge="1" parent="1" target="k5MXxjJfHEkBRCnErAjd-63">
          <mxGeometry width="50" height="50" relative="1" as="geometry">
            <mxPoint x="960" y="1155" as="sourcePoint" />
            <mxPoint x="1060" y="1200" as="targetPoint" />
          </mxGeometry>
        </mxCell>
        <mxCell id="k5MXxjJfHEkBRCnErAjd-133" value="" style="endArrow=classic;html=1;entryX=0;entryY=0.5;entryDx=0;entryDy=0;" edge="1" parent="1" target="k5MXxjJfHEkBRCnErAjd-64">
          <mxGeometry width="50" height="50" relative="1" as="geometry">
            <mxPoint x="960" y="1205" as="sourcePoint" />
            <mxPoint x="1060" y="1260" as="targetPoint" />
          </mxGeometry>
        </mxCell>
        <mxCell id="k5MXxjJfHEkBRCnErAjd-134" value="" style="endArrow=classic;html=1;entryX=0;entryY=0.5;entryDx=0;entryDy=0;" edge="1" parent="1" target="k5MXxjJfHEkBRCnErAjd-65">
          <mxGeometry width="50" height="50" relative="1" as="geometry">
            <mxPoint x="960" y="1255" as="sourcePoint" />
            <mxPoint x="1030" y="1280" as="targetPoint" />
          </mxGeometry>
        </mxCell>
        <mxCell id="k5MXxjJfHEkBRCnErAjd-135" value="" style="endArrow=classic;html=1;entryX=0;entryY=0.5;entryDx=0;entryDy=0;" edge="1" parent="1" target="k5MXxjJfHEkBRCnErAjd-66">
          <mxGeometry width="50" height="50" relative="1" as="geometry">
            <mxPoint x="950" y="1305" as="sourcePoint" />
            <mxPoint x="1060" y="1280" as="targetPoint" />
          </mxGeometry>
        </mxCell>
        <mxCell id="k5MXxjJfHEkBRCnErAjd-136" value="" style="endArrow=classic;html=1;entryX=0;entryY=0.5;entryDx=0;entryDy=0;" edge="1" parent="1" target="k5MXxjJfHEkBRCnErAjd-67">
          <mxGeometry width="50" height="50" relative="1" as="geometry">
            <mxPoint x="960" y="1355" as="sourcePoint" />
            <mxPoint x="1070" y="1320" as="targetPoint" />
          </mxGeometry>
        </mxCell>
        <mxCell id="k5MXxjJfHEkBRCnErAjd-137" value="" style="endArrow=classic;html=1;entryX=0;entryY=0.5;entryDx=0;entryDy=0;" edge="1" parent="1" target="k5MXxjJfHEkBRCnErAjd-68">
          <mxGeometry width="50" height="50" relative="1" as="geometry">
            <mxPoint x="960" y="1405" as="sourcePoint" />
            <mxPoint x="1070" y="1370" as="targetPoint" />
          </mxGeometry>
        </mxCell>
        <mxCell id="k5MXxjJfHEkBRCnErAjd-138" value="" style="endArrow=classic;html=1;entryX=0;entryY=0.5;entryDx=0;entryDy=0;" edge="1" parent="1" target="k5MXxjJfHEkBRCnErAjd-69">
          <mxGeometry width="50" height="50" relative="1" as="geometry">
            <mxPoint x="960" y="1455" as="sourcePoint" />
            <mxPoint x="1050" y="1420" as="targetPoint" />
          </mxGeometry>
        </mxCell>
        <mxCell id="k5MXxjJfHEkBRCnErAjd-139" value="" style="endArrow=classic;html=1;exitX=1;exitY=0.5;exitDx=0;exitDy=0;entryX=0;entryY=0.5;entryDx=0;entryDy=0;" edge="1" parent="1" source="k5MXxjJfHEkBRCnErAjd-43" target="k5MXxjJfHEkBRCnErAjd-25">
          <mxGeometry width="50" height="50" relative="1" as="geometry">
            <mxPoint x="220" y="2020" as="sourcePoint" />
            <mxPoint x="270" y="1970" as="targetPoint" />
            <Array as="points">
              <mxPoint x="160" y="2085" />
              <mxPoint x="160" y="1705" />
            </Array>
          </mxGeometry>
        </mxCell>
        <mxCell id="k5MXxjJfHEkBRCnErAjd-140" value="" style="endArrow=classic;html=1;exitX=1;exitY=0.5;exitDx=0;exitDy=0;entryX=0;entryY=0.5;entryDx=0;entryDy=0;" edge="1" parent="1" source="k5MXxjJfHEkBRCnErAjd-43" target="k5MXxjJfHEkBRCnErAjd-33">
          <mxGeometry width="50" height="50" relative="1" as="geometry">
            <mxPoint x="320" y="2290" as="sourcePoint" />
            <mxPoint x="370" y="2240" as="targetPoint" />
            <Array as="points">
              <mxPoint x="160" y="2085" />
              <mxPoint x="160" y="2695" />
            </Array>
          </mxGeometry>
        </mxCell>
        <mxCell id="k5MXxjJfHEkBRCnErAjd-141" value="" style="endArrow=classic;html=1;entryX=0;entryY=0.5;entryDx=0;entryDy=0;" edge="1" parent="1" target="k5MXxjJfHEkBRCnErAjd-26">
          <mxGeometry width="50" height="50" relative="1" as="geometry">
            <mxPoint x="160" y="1755" as="sourcePoint" />
            <mxPoint x="290" y="1820" as="targetPoint" />
          </mxGeometry>
        </mxCell>
        <mxCell id="k5MXxjJfHEkBRCnErAjd-142" value="" style="endArrow=classic;html=1;entryX=0;entryY=0.5;entryDx=0;entryDy=0;" edge="1" parent="1" target="k5MXxjJfHEkBRCnErAjd-27">
          <mxGeometry width="50" height="50" relative="1" as="geometry">
            <mxPoint x="160" y="1855" as="sourcePoint" />
            <mxPoint x="340" y="1850" as="targetPoint" />
          </mxGeometry>
        </mxCell>
        <mxCell id="k5MXxjJfHEkBRCnErAjd-143" value="" style="endArrow=classic;html=1;entryX=0;entryY=0.5;entryDx=0;entryDy=0;" edge="1" parent="1" target="k5MXxjJfHEkBRCnErAjd-28">
          <mxGeometry width="50" height="50" relative="1" as="geometry">
            <mxPoint x="160" y="1975" as="sourcePoint" />
            <mxPoint x="350" y="1920" as="targetPoint" />
          </mxGeometry>
        </mxCell>
        <mxCell id="k5MXxjJfHEkBRCnErAjd-144" value="" style="endArrow=classic;html=1;entryX=0;entryY=0.5;entryDx=0;entryDy=0;" edge="1" parent="1" target="k5MXxjJfHEkBRCnErAjd-106">
          <mxGeometry width="50" height="50" relative="1" as="geometry">
            <mxPoint x="160" y="2205" as="sourcePoint" />
            <mxPoint x="390" y="2150" as="targetPoint" />
          </mxGeometry>
        </mxCell>
        <mxCell id="k5MXxjJfHEkBRCnErAjd-145" value="" style="endArrow=classic;html=1;entryX=0;entryY=0.5;entryDx=0;entryDy=0;" edge="1" parent="1" target="k5MXxjJfHEkBRCnErAjd-31">
          <mxGeometry width="50" height="50" relative="1" as="geometry">
            <mxPoint x="160" y="2535" as="sourcePoint" />
            <mxPoint x="330" y="2510" as="targetPoint" />
          </mxGeometry>
        </mxCell>
        <mxCell id="k5MXxjJfHEkBRCnErAjd-146" value="" style="endArrow=classic;html=1;entryX=0;entryY=0.5;entryDx=0;entryDy=0;" edge="1" parent="1" target="k5MXxjJfHEkBRCnErAjd-29">
          <mxGeometry width="50" height="50" relative="1" as="geometry">
            <mxPoint x="160" y="2595" as="sourcePoint" />
            <mxPoint x="360" y="2570" as="targetPoint" />
          </mxGeometry>
        </mxCell>
        <mxCell id="k5MXxjJfHEkBRCnErAjd-147" value="" style="endArrow=classic;html=1;entryX=0;entryY=0.5;entryDx=0;entryDy=0;" edge="1" parent="1" target="k5MXxjJfHEkBRCnErAjd-32">
          <mxGeometry width="50" height="50" relative="1" as="geometry">
            <mxPoint x="160" y="2645" as="sourcePoint" />
            <mxPoint x="350" y="2620" as="targetPoint" />
          </mxGeometry>
        </mxCell>
        <mxCell id="k5MXxjJfHEkBRCnErAjd-148" value="" style="endArrow=classic;html=1;" edge="1" parent="1">
          <mxGeometry width="50" height="50" relative="1" as="geometry">
            <mxPoint x="580" y="1690" as="sourcePoint" />
            <mxPoint x="630" y="1640" as="targetPoint" />
          </mxGeometry>
        </mxCell>
      </root>
    </mxGraphModel>
  </diagram>
</mxfile>
